<svg id="visual" viewBox="0 0 1930 1080" width="1930" height="1080" xmlns="http://www.w3.org/2000/svg" xmlns:xlink="http://www.w3.org/1999/xlink" version="1.1"><rect width="1930" height="1080" fill="#131314"></rect><g><g transform="translate(197 800)"><path d="M0 -25.8L18.2 -18.2L25.8 0L18.2 18.2L0 25.8L-18.2 18.2L-25.8 0L-18.2 -18.2Z" fill="none" stroke="#1f2121" stroke-width="2"></path></g><g transform="translate(678 32)"><path d="M0 -17L12 -12L17 0L12 12L0 17L-12 12L-17 0L-12 -12Z" stroke="#1f2121" fill="none" stroke-width="2"></path></g><g transform="translate(60 669)"><path d="M0 -21L14.8 -14.8L21 0L14.8 14.8L0 21L-14.8 14.8L-21 0L-14.8 -14.8Z" stroke="#1f2121" fill="none" stroke-width="2"></path></g><g transform="translate(1059 293)"><path d="M0 -18L12.7 -12.7L18 0L12.7 12.7L0 18L-12.7 12.7L-18 0L-12.7 -12.7Z" stroke="#1f2121" fill="none" stroke-width="2"></path></g><g transform="translate(849 552)"><path d="M0 -22L15.6 -15.6L22 0L15.6 15.6L0 22L-15.6 15.6L-22 0L-15.6 -15.6Z" stroke="#1f2121" fill="none" stroke-width="2"></path></g><g transform="translate(569 969)"><path d="M0 -22L15.6 -15.6L22 0L15.6 15.6L0 22L-15.6 15.6L-22 0L-15.6 -15.6Z" stroke="#1f2121" fill="none" stroke-width="2"></path></g><g transform="translate(1900 618)"><path d="M0 -4L2.8 -2.8L4 0L2.8 2.8L0 4L-2.8 2.8L-4 0L-2.8 -2.8Z" stroke="#1f2121" fill="none" stroke-width="2"></path></g><g transform="translate(1021 359)"><path d="M0 -14L9.9 -9.9L14 0L9.9 9.9L0 14L-9.9 9.9L-14 0L-9.9 -9.9Z" stroke="#1f2121" fill="none" stroke-width="2"></path></g><g transform="translate(466 87)"><path d="M0 -15L10.6 -10.6L15 0L10.6 10.6L0 15L-10.6 10.6L-15 0L-10.6 -10.6Z" stroke="#1f2121" fill="none" stroke-width="2"></path></g><g transform="translate(1554 960)"><path d="M0 -23L16.3 -16.3L23 0L16.3 16.3L0 23L-16.3 16.3L-23 0L-16.3 -16.3Z" stroke="#1f2121" fill="none" stroke-width="2"></path></g><g transform="translate(1313 359)"><path d="M0 -23L16.3 -16.3L23 0L16.3 16.3L0 23L-16.3 16.3L-23 0L-16.3 -16.3Z" stroke="#1f2121" fill="none" stroke-width="2"></path></g><g transform="translate(1121 916)"><path d="M0 -10L7.1 -7.1L10 0L7.1 7.1L0 10L-7.1 7.1L-10 0L-7.1 -7.1Z" stroke="#1f2121" fill="none" stroke-width="2"></path></g><g transform="translate(340 766)"><path d="M0 -15L10.6 -10.6L15 0L10.6 10.6L0 15L-10.6 10.6L-15 0L-10.6 -10.6Z" stroke="#1f2121" fill="none" stroke-width="2"></path></g><g transform="translate(378 1041)"><path d="M0 -4L2.8 -2.8L4 0L2.8 2.8L0 4L-2.8 2.8L-4 0L-2.8 -2.8Z" stroke="#1f2121" fill="none" stroke-width="2"></path></g><g transform="translate(1570 788)"><path d="M0 -16L11.3 -11.3L16 0L11.3 11.3L0 16L-11.3 11.3L-16 0L-11.3 -11.3Z" stroke="#1f2121" fill="none" stroke-width="2"></path></g><g transform="translate(265 192)"><path d="M0 -12L8.5 -8.5L12 0L8.5 8.5L0 12L-8.5 8.5L-12 0L-8.5 -8.5Z" stroke="#1f2121" fill="none" stroke-width="2"></path></g><g transform="translate(1006 955)"><path d="M0 -4L2.8 -2.8L4 0L2.8 2.8L0 4L-2.8 2.8L-4 0L-2.8 -2.8Z" stroke="#1f2121" fill="none" stroke-width="2"></path></g><g transform="translate(38 738)"><path d="M0 -4L2.8 -2.8L4 0L2.8 2.8L0 4L-2.8 2.8L-4 0L-2.8 -2.8Z" stroke="#1f2121" fill="none" stroke-width="2"></path></g><g transform="translate(212 625)"><path d="M0 -10L7.1 -7.1L10 0L7.1 7.1L0 10L-7.1 7.1L-10 0L-7.1 -7.1Z" stroke="#1f2121" fill="none" stroke-width="2"></path></g><g transform="translate(1076 472)"><path d="M0 -21L14.8 -14.8L21 0L14.8 14.8L0 21L-14.8 14.8L-21 0L-14.8 -14.8Z" stroke="#1f2121" fill="none" stroke-width="2"></path></g><g transform="translate(1743 959)"><path d="M0 -11L7.8 -7.8L11 0L7.8 7.8L0 11L-7.8 7.8L-11 0L-7.8 -7.8Z" stroke="#1f2121" fill="none" stroke-width="2"></path></g><g transform="translate(311 1051)"><path d="M0 -4L2.8 -2.8L4 0L2.8 2.8L0 4L-2.8 2.8L-4 0L-2.8 -2.8Z" stroke="#1f2121" fill="none" stroke-width="2"></path></g><g transform="translate(1754 452)"><path d="M0 -18L12.7 -12.7L18 0L12.7 12.7L0 18L-12.7 12.7L-18 0L-12.7 -12.7Z" stroke="#1f2121" fill="none" stroke-width="2"></path></g><g transform="translate(1321 560)"><path d="M0 -10L7.1 -7.1L10 0L7.1 7.1L0 10L-7.1 7.1L-10 0L-7.1 -7.1Z" stroke="#1f2121" fill="none" stroke-width="2"></path></g><g transform="translate(1647 555)"><path d="M0 -17L12 -12L17 0L12 12L0 17L-12 12L-17 0L-12 -12Z" stroke="#1f2121" fill="none" stroke-width="2"></path></g><g transform="translate(723 822)"><path d="M0 -19L13.4 -13.4L19 0L13.4 13.4L0 19L-13.4 13.4L-19 0L-13.4 -13.4Z" stroke="#1f2121" fill="none" stroke-width="2"></path></g><g transform="translate(55 860)"><path d="M0 -11L7.8 -7.8L11 0L7.8 7.8L0 11L-7.8 7.8L-11 0L-7.8 -7.8Z" stroke="#1f2121" fill="none" stroke-width="2"></path></g><g transform="translate(1678 313)"><path d="M0 -10L7.1 -7.1L10 0L7.1 7.1L0 10L-7.1 7.1L-10 0L-7.1 -7.1Z" stroke="#1f2121" fill="none" stroke-width="2"></path></g><g transform="translate(547 110)"><path d="M0 -16L11.3 -11.3L16 0L11.3 11.3L0 16L-11.3 11.3L-16 0L-11.3 -11.3Z" stroke="#1f2121" fill="none" stroke-width="2"></path></g><g transform="translate(316 462)"><path d="M0 -6L4.2 -4.2L6 0L4.2 4.2L0 6L-4.2 4.2L-6 0L-4.2 -4.2Z" stroke="#1f2121" fill="none" stroke-width="2"></path></g><g transform="translate(742 152)"><path d="M0 -8L5.7 -5.7L8 0L5.7 5.7L0 8L-5.7 5.7L-8 0L-5.7 -5.7Z" stroke="#1f2121" fill="none" stroke-width="2"></path></g><g transform="translate(438 631)"><path d="M0 -10L7.1 -7.1L10 0L7.1 7.1L0 10L-7.1 7.1L-10 0L-7.1 -7.1Z" stroke="#1f2121" fill="none" stroke-width="2"></path></g><g transform="translate(1099 668)"><path d="M0 -11L7.8 -7.8L11 0L7.8 7.8L0 11L-7.8 7.8L-11 0L-7.8 -7.8Z" stroke="#1f2121" fill="none" stroke-width="2"></path></g><g transform="translate(1506 478)"><path d="M0 -13L9.2 -9.2L13 0L9.2 9.2L0 13L-9.2 9.2L-13 0L-9.2 -9.2Z" stroke="#1f2121" fill="none" stroke-width="2"></path></g><g transform="translate(865 396)"><path d="M0 -18L12.7 -12.7L18 0L12.7 12.7L0 18L-12.7 12.7L-18 0L-12.7 -12.7Z" stroke="#1f2121" fill="none" stroke-width="2"></path></g><g transform="translate(912 309)"><path d="M0 -22L15.6 -15.6L22 0L15.6 15.6L0 22L-15.6 15.6L-22 0L-15.6 -15.6Z" stroke="#1f2121" fill="none" stroke-width="2"></path></g><g transform="translate(1702 745)"><path d="M0 -7L4.9 -4.9L7 0L4.9 4.9L0 7L-4.9 4.9L-7 0L-4.9 -4.9Z" stroke="#1f2121" fill="none" stroke-width="2"></path></g><g transform="translate(387 743)"><path d="M0 -13L9.2 -9.2L13 0L9.2 9.2L0 13L-9.2 9.2L-13 0L-9.2 -9.2Z" stroke="#1f2121" fill="none" stroke-width="2"></path></g><g transform="translate(685 693)"><path d="M0 -8L5.7 -5.7L8 0L5.7 5.7L0 8L-5.7 5.7L-8 0L-5.7 -5.7Z" stroke="#1f2121" fill="none" stroke-width="2"></path></g><g transform="translate(959 172)"><path d="M0 -13L9.2 -9.2L13 0L9.2 9.2L0 13L-9.2 9.2L-13 0L-9.2 -9.2Z" stroke="#1f2121" fill="none" stroke-width="2"></path></g><g transform="translate(823 297)"><path d="M0 -12L8.5 -8.5L12 0L8.5 8.5L0 12L-8.5 8.5L-12 0L-8.5 -8.5Z" stroke="#1f2121" fill="none" stroke-width="2"></path></g><g transform="translate(1098 724)"><path d="M0 -12L8.5 -8.5L12 0L8.5 8.5L0 12L-8.5 8.5L-12 0L-8.5 -8.5Z" stroke="#1f2121" fill="none" stroke-width="2"></path></g><g transform="translate(1509 783)"><path d="M0 -12L8.5 -8.5L12 0L8.5 8.5L0 12L-8.5 8.5L-12 0L-8.5 -8.5Z" stroke="#1f2121" fill="none" stroke-width="2"></path></g><g transform="translate(555 468)"><path d="M0 -24L17 -17L24 0L17 17L0 24L-17 17L-24 0L-17 -17Z" stroke="#1f2121" fill="none" stroke-width="2"></path></g><g transform="translate(429 775)"><path d="M0 -24L17 -17L24 0L17 17L0 24L-17 17L-24 0L-17 -17Z" stroke="#1f2121" fill="none" stroke-width="2"></path></g><g transform="translate(427 276)"><path d="M0 -4L2.8 -2.8L4 0L2.8 2.8L0 4L-2.8 2.8L-4 0L-2.8 -2.8Z" stroke="#1f2121" fill="none" stroke-width="2"></path></g><g transform="translate(1639 996)"><path d="M0 -24L17 -17L24 0L17 17L0 24L-17 17L-24 0L-17 -17Z" stroke="#1f2121" fill="none" stroke-width="2"></path></g><g transform="translate(1726 576)"><path d="M0 -13L9.2 -9.2L13 0L9.2 9.2L0 13L-9.2 9.2L-13 0L-9.2 -9.2Z" stroke="#1f2121" fill="none" stroke-width="2"></path></g><g transform="translate(1097 210)"><path d="M0 -18L12.7 -12.7L18 0L12.7 12.7L0 18L-12.7 12.7L-18 0L-12.7 -12.7Z" stroke="#1f2121" fill="none" stroke-width="2"></path></g><g transform="translate(1426 210)"><path d="M0 -23L16.3 -16.3L23 0L16.3 16.3L0 23L-16.3 16.3L-23 0L-16.3 -16.3Z" stroke="#1f2121" fill="none" stroke-width="2"></path></g><g transform="translate(475 1015)"><path d="M0 -18L12.7 -12.7L18 0L12.7 12.7L0 18L-12.7 12.7L-18 0L-12.7 -12.7Z" stroke="#1f2121" fill="none" stroke-width="2"></path></g><g transform="translate(830 907)"><path d="M0 -22L15.6 -15.6L22 0L15.6 15.6L0 22L-15.6 15.6L-22 0L-15.6 -15.6Z" stroke="#1f2121" fill="none" stroke-width="2"></path></g><g transform="translate(844 963)"><path d="M0 -10L7.1 -7.1L10 0L7.1 7.1L0 10L-7.1 7.1L-10 0L-7.1 -7.1Z" stroke="#1f2121" fill="none" stroke-width="2"></path></g><g transform="translate(1207 438)"><path d="M0 -24L17 -17L24 0L17 17L0 24L-17 17L-24 0L-17 -17Z" stroke="#1f2121" fill="none" stroke-width="2"></path></g><g transform="translate(1006 462)"><path d="M0 -8L5.7 -5.7L8 0L5.7 5.7L0 8L-5.7 5.7L-8 0L-5.7 -5.7Z" stroke="#1f2121" fill="none" stroke-width="2"></path></g><g transform="translate(565 271)"><path d="M0 -14L9.9 -9.9L14 0L9.9 9.9L0 14L-9.9 9.9L-14 0L-9.9 -9.9Z" stroke="#1f2121" fill="none" stroke-width="2"></path></g><g transform="translate(1811 793)"><path d="M0 -6L4.2 -4.2L6 0L4.2 4.2L0 6L-4.2 4.2L-6 0L-4.2 -4.2Z" stroke="#1f2121" fill="none" stroke-width="2"></path></g><g transform="translate(1390 492)"><path d="M0 -4L2.8 -2.8L4 0L2.8 2.8L0 4L-2.8 2.8L-4 0L-2.8 -2.8Z" stroke="#1f2121" fill="none" stroke-width="2"></path></g><g transform="translate(830 94)"><path d="M0 -3L2.1 -2.1L3 0L2.1 2.1L0 3L-2.1 2.1L-3 0L-2.1 -2.1Z" stroke="#1f2121" fill="none" stroke-width="2"></path></g><g transform="translate(1713 178)"><path d="M0 -20L14.1 -14.1L20 0L14.1 14.1L0 20L-14.1 14.1L-20 0L-14.1 -14.1Z" stroke="#1f2121" fill="none" stroke-width="2"></path></g><g transform="translate(1490 577)"><path d="M0 -8L5.7 -5.7L8 0L5.7 5.7L0 8L-5.7 5.7L-8 0L-5.7 -5.7Z" stroke="#1f2121" fill="none" stroke-width="2"></path></g><g transform="translate(1325 616)"><path d="M0 -5L3.5 -3.5L5 0L3.5 3.5L0 5L-3.5 3.5L-5 0L-3.5 -3.5Z" stroke="#1f2121" fill="none" stroke-width="2"></path></g><g transform="translate(1465 879)"><path d="M0 -10L7.1 -7.1L10 0L7.1 7.1L0 10L-7.1 7.1L-10 0L-7.1 -7.1Z" stroke="#1f2121" fill="none" stroke-width="2"></path></g><g transform="translate(1319 78)"><path d="M0 -24L17 -17L24 0L17 17L0 24L-17 17L-24 0L-17 -17Z" stroke="#1f2121" fill="none" stroke-width="2"></path></g><g transform="translate(1854 237)"><path d="M0 -8L5.7 -5.7L8 0L5.7 5.7L0 8L-5.7 5.7L-8 0L-5.7 -5.7Z" stroke="#1f2121" fill="none" stroke-width="2"></path></g><g transform="translate(151 685)"><path d="M0 -19L13.4 -13.4L19 0L13.4 13.4L0 19L-13.4 13.4L-19 0L-13.4 -13.4Z" stroke="#1f2121" fill="none" stroke-width="2"></path></g><g transform="translate(1341 986)"><path d="M0 -8L5.7 -5.7L8 0L5.7 5.7L0 8L-5.7 5.7L-8 0L-5.7 -5.7Z" stroke="#1f2121" fill="none" stroke-width="2"></path></g><g transform="translate(808 663)"><path d="M0 -20L14.1 -14.1L20 0L14.1 14.1L0 20L-14.1 14.1L-20 0L-14.1 -14.1Z" stroke="#1f2121" fill="none" stroke-width="2"></path></g><g transform="translate(345 37)"><path d="M0 -5L3.5 -3.5L5 0L3.5 3.5L0 5L-3.5 3.5L-5 0L-3.5 -3.5Z" stroke="#1f2121" fill="none" stroke-width="2"></path></g><g transform="translate(1031 30)"><path d="M0 -12L8.5 -8.5L12 0L8.5 8.5L0 12L-8.5 8.5L-12 0L-8.5 -8.5Z" stroke="#1f2121" fill="none" stroke-width="2"></path></g><g transform="translate(1125 838)"><path d="M0 -4L2.8 -2.8L4 0L2.8 2.8L0 4L-2.8 2.8L-4 0L-2.8 -2.8Z" stroke="#1f2121" fill="none" stroke-width="2"></path></g><g transform="translate(400 87)"><path d="M0 -9L6.4 -6.4L9 0L6.4 6.4L0 9L-6.4 6.4L-9 0L-6.4 -6.4Z" stroke="#1f2121" fill="none" stroke-width="2"></path></g><g transform="translate(858 231)"><path d="M0 -9L6.4 -6.4L9 0L6.4 6.4L0 9L-6.4 6.4L-9 0L-6.4 -6.4Z" stroke="#1f2121" fill="none" stroke-width="2"></path></g><g transform="translate(1153 469)"><path d="M0 -7L4.9 -4.9L7 0L4.9 4.9L0 7L-4.9 4.9L-7 0L-4.9 -4.9Z" stroke="#1f2121" fill="none" stroke-width="2"></path></g><g transform="translate(834 614)"><path d="M0 -17L12 -12L17 0L12 12L0 17L-12 12L-17 0L-12 -12Z" stroke="#1f2121" fill="none" stroke-width="2"></path></g><g transform="translate(1805 49)"><path d="M0 -6L4.2 -4.2L6 0L4.2 4.2L0 6L-4.2 4.2L-6 0L-4.2 -4.2Z" stroke="#1f2121" fill="none" stroke-width="2"></path></g><g transform="translate(1070 965)"><path d="M0 -6L4.2 -4.2L6 0L4.2 4.2L0 6L-4.2 4.2L-6 0L-4.2 -4.2Z" stroke="#1f2121" fill="none" stroke-width="2"></path></g><g transform="translate(137 952)"><path d="M0 -12L8.5 -8.5L12 0L8.5 8.5L0 12L-8.5 8.5L-12 0L-8.5 -8.5Z" stroke="#1f2121" fill="none" stroke-width="2"></path></g><g transform="translate(252 687)"><path d="M0 -6L4.2 -4.2L6 0L4.2 4.2L0 6L-4.2 4.2L-6 0L-4.2 -4.2Z" stroke="#1f2121" fill="none" stroke-width="2"></path></g><g transform="translate(1486 709)"><path d="M0 -20L14.1 -14.1L20 0L14.1 14.1L0 20L-14.1 14.1L-20 0L-14.1 -14.1Z" stroke="#1f2121" fill="none" stroke-width="2"></path></g><g transform="translate(855 492)"><path d="M0 -3L2.1 -2.1L3 0L2.1 2.1L0 3L-2.1 2.1L-3 0L-2.1 -2.1Z" stroke="#1f2121" fill="none" stroke-width="2"></path></g><g transform="translate(1180 129)"><path d="M0 -9L6.4 -6.4L9 0L6.4 6.4L0 9L-6.4 6.4L-9 0L-6.4 -6.4Z" stroke="#1f2121" fill="none" stroke-width="2"></path></g><g transform="translate(1272 886)"><path d="M0 -11L7.8 -7.8L11 0L7.8 7.8L0 11L-7.8 7.8L-11 0L-7.8 -7.8Z" stroke="#1f2121" fill="none" stroke-width="2"></path></g><g transform="translate(1177 916)"><path d="M0 -16L11.3 -11.3L16 0L11.3 11.3L0 16L-11.3 11.3L-16 0L-11.3 -11.3Z" stroke="#1f2121" fill="none" stroke-width="2"></path></g><g transform="translate(63 965)"><path d="M0 -7L4.9 -4.9L7 0L4.9 4.9L0 7L-4.9 4.9L-7 0L-4.9 -4.9Z" stroke="#1f2121" fill="none" stroke-width="2"></path></g><g transform="translate(1259 950)"><path d="M0 -17L12 -12L17 0L12 12L0 17L-12 12L-17 0L-12 -12Z" stroke="#1f2121" fill="none" stroke-width="2"></path></g><g transform="translate(1621 253)"><path d="M0 -18L12.7 -12.7L18 0L12.7 12.7L0 18L-12.7 12.7L-18 0L-12.7 -12.7Z" stroke="#1f2121" fill="none" stroke-width="2"></path></g><g transform="translate(676 278)"><path d="M0 -20L14.1 -14.1L20 0L14.1 14.1L0 20L-14.1 14.1L-20 0L-14.1 -14.1Z" stroke="#1f2121" fill="none" stroke-width="2"></path></g><g transform="translate(595 1015)"><path d="M0 -4L2.8 -2.8L4 0L2.8 2.8L0 4L-2.8 2.8L-4 0L-2.8 -2.8Z" stroke="#1f2121" fill="none" stroke-width="2"></path></g><g transform="translate(1555 610)"><path d="M0 -23L16.3 -16.3L23 0L16.3 16.3L0 23L-16.3 16.3L-23 0L-16.3 -16.3Z" stroke="#1f2121" fill="none" stroke-width="2"></path></g><g transform="translate(366 159)"><path d="M0 -9L6.4 -6.4L9 0L6.4 6.4L0 9L-6.4 6.4L-9 0L-6.4 -6.4Z" stroke="#1f2121" fill="none" stroke-width="2"></path></g><g transform="translate(1078 159)"><path d="M0 -10L7.1 -7.1L10 0L7.1 7.1L0 10L-7.1 7.1L-10 0L-7.1 -7.1Z" stroke="#1f2121" fill="none" stroke-width="2"></path></g><g transform="translate(435 843)"><path d="M0 -14L9.9 -9.9L14 0L9.9 9.9L0 14L-9.9 9.9L-14 0L-9.9 -9.9Z" stroke="#1f2121" fill="none" stroke-width="2"></path></g><g transform="translate(1619 857)"><path d="M0 -14L9.9 -9.9L14 0L9.9 9.9L0 14L-9.9 9.9L-14 0L-9.9 -9.9Z" stroke="#1f2121" fill="none" stroke-width="2"></path></g><g transform="translate(930 899)"><path d="M0 -7L4.9 -4.9L7 0L4.9 4.9L0 7L-4.9 4.9L-7 0L-4.9 -4.9Z" stroke="#1f2121" fill="none" stroke-width="2"></path></g><g transform="translate(567 849)"><path d="M0 -9L6.4 -6.4L9 0L6.4 6.4L0 9L-6.4 6.4L-9 0L-6.4 -6.4Z" stroke="#1f2121" fill="none" stroke-width="2"></path></g><g transform="translate(1437 557)"><path d="M0 -13L9.2 -9.2L13 0L9.2 9.2L0 13L-9.2 9.2L-13 0L-9.2 -9.2Z" stroke="#1f2121" fill="none" stroke-width="2"></path></g><g transform="translate(1664 821)"><path d="M0 -12L8.5 -8.5L12 0L8.5 8.5L0 12L-8.5 8.5L-12 0L-8.5 -8.5Z" stroke="#1f2121" fill="none" stroke-width="2"></path></g><g transform="translate(1491 154)"><path d="M0 -9L6.4 -6.4L9 0L6.4 6.4L0 9L-6.4 6.4L-9 0L-6.4 -6.4Z" stroke="#1f2121" fill="none" stroke-width="2"></path></g><g transform="translate(1377 712)"><path d="M0 -20L14.1 -14.1L20 0L14.1 14.1L0 20L-14.1 14.1L-20 0L-14.1 -14.1Z" stroke="#1f2121" fill="none" stroke-width="2"></path></g><g transform="translate(1308 682)"><path d="M0 -4L2.8 -2.8L4 0L2.8 2.8L0 4L-2.8 2.8L-4 0L-2.8 -2.8Z" stroke="#1f2121" fill="none" stroke-width="2"></path></g><g transform="translate(1764 312)"><path d="M0 -3L2.1 -2.1L3 0L2.1 2.1L0 3L-2.1 2.1L-3 0L-2.1 -2.1Z" stroke="#1f2121" fill="none" stroke-width="2"></path></g><g transform="translate(803 527)"><path d="M0 -19L13.4 -13.4L19 0L13.4 13.4L0 19L-13.4 13.4L-19 0L-13.4 -13.4Z" stroke="#1f2121" fill="none" stroke-width="2"></path></g><g transform="translate(686 99)"><path d="M0 -21L14.8 -14.8L21 0L14.8 14.8L0 21L-14.8 14.8L-21 0L-14.8 -14.8Z" stroke="#1f2121" fill="none" stroke-width="2"></path></g><g transform="translate(1568 186)"><path d="M0 -4L2.8 -2.8L4 0L2.8 2.8L0 4L-2.8 2.8L-4 0L-2.8 -2.8Z" stroke="#1f2121" fill="none" stroke-width="2"></path></g><g transform="translate(634 924)"><path d="M0 -15L10.6 -10.6L15 0L10.6 10.6L0 15L-10.6 10.6L-15 0L-10.6 -10.6Z" stroke="#1f2121" fill="none" stroke-width="2"></path></g><g transform="translate(1423 349)"><path d="M0 -3L2.1 -2.1L3 0L2.1 2.1L0 3L-2.1 2.1L-3 0L-2.1 -2.1Z" stroke="#1f2121" fill="none" stroke-width="2"></path></g><g transform="translate(594 664)"><path d="M0 -4L2.8 -2.8L4 0L2.8 2.8L0 4L-2.8 2.8L-4 0L-2.8 -2.8Z" stroke="#1f2121" fill="none" stroke-width="2"></path></g><g transform="translate(1105 522)"><path d="M0 -17L12 -12L17 0L12 12L0 17L-12 12L-17 0L-12 -12Z" stroke="#1f2121" fill="none" stroke-width="2"></path></g><g transform="translate(452 456)"><path d="M0 -9L6.4 -6.4L9 0L6.4 6.4L0 9L-6.4 6.4L-9 0L-6.4 -6.4Z" stroke="#1f2121" fill="none" stroke-width="2"></path></g><g transform="translate(176 544)"><path d="M0 -7L4.9 -4.9L7 0L4.9 4.9L0 7L-4.9 4.9L-7 0L-4.9 -4.9Z" stroke="#1f2121" fill="none" stroke-width="2"></path></g><g transform="translate(1132 397)"><path d="M0 -7L4.9 -4.9L7 0L4.9 4.9L0 7L-4.9 4.9L-7 0L-4.9 -4.9Z" stroke="#1f2121" fill="none" stroke-width="2"></path></g><g transform="translate(888 80)"><path d="M0 -11L7.8 -7.8L11 0L7.8 7.8L0 11L-7.8 7.8L-11 0L-7.8 -7.8Z" stroke="#1f2121" fill="none" stroke-width="2"></path></g><g transform="translate(1860 358)"><path d="M0 -19L13.4 -13.4L19 0L13.4 13.4L0 19L-13.4 13.4L-19 0L-13.4 -13.4Z" stroke="#1f2121" fill="none" stroke-width="2"></path></g><g transform="translate(1631 447)"><path d="M0 -11L7.8 -7.8L11 0L7.8 7.8L0 11L-7.8 7.8L-11 0L-7.8 -7.8Z" stroke="#1f2121" fill="none" stroke-width="2"></path></g><g transform="translate(939 667)"><path d="M0 -3L2.1 -2.1L3 0L2.1 2.1L0 3L-2.1 2.1L-3 0L-2.1 -2.1Z" stroke="#1f2121" fill="none" stroke-width="2"></path></g><g transform="translate(1111 71)"><path d="M0 -23L16.3 -16.3L23 0L16.3 16.3L0 23L-16.3 16.3L-23 0L-16.3 -16.3Z" stroke="#1f2121" fill="none" stroke-width="2"></path></g><g transform="translate(1020 723)"><path d="M0 -8L5.7 -5.7L8 0L5.7 5.7L0 8L-5.7 5.7L-8 0L-5.7 -5.7Z" stroke="#1f2121" fill="none" stroke-width="2"></path></g><g transform="translate(1392 946)"><path d="M0 -17L12 -12L17 0L12 12L0 17L-12 12L-17 0L-12 -12Z" stroke="#1f2121" fill="none" stroke-width="2"></path></g><g transform="translate(168 76)"><path d="M0 -19L13.4 -13.4L19 0L13.4 13.4L0 19L-13.4 13.4L-19 0L-13.4 -13.4Z" stroke="#1f2121" fill="none" stroke-width="2"></path></g><g transform="translate(1797 482)"><path d="M0 -24L17 -17L24 0L17 17L0 24L-17 17L-24 0L-17 -17Z" stroke="#1f2121" fill="none" stroke-width="2"></path></g><g transform="translate(1059 831)"><path d="M0 -17L12 -12L17 0L12 12L0 17L-12 12L-17 0L-12 -12Z" stroke="#1f2121" fill="none" stroke-width="2"></path></g><g transform="translate(1778 591)"><path d="M0 -21L14.8 -14.8L21 0L14.8 14.8L0 21L-14.8 14.8L-21 0L-14.8 -14.8Z" stroke="#1f2121" fill="none" stroke-width="2"></path></g><g transform="translate(69 532)"><path d="M0 -3L2.1 -2.1L3 0L2.1 2.1L0 3L-2.1 2.1L-3 0L-2.1 -2.1Z" stroke="#1f2121" fill="none" stroke-width="2"></path></g><g transform="translate(1171 1044)"><path d="M0 -9L6.4 -6.4L9 0L6.4 6.4L0 9L-6.4 6.4L-9 0L-6.4 -6.4Z" stroke="#1f2121" fill="none" stroke-width="2"></path></g><g transform="translate(459 690)"><path d="M0 -23L16.3 -16.3L23 0L16.3 16.3L0 23L-16.3 16.3L-23 0L-16.3 -16.3Z" stroke="#1f2121" fill="none" stroke-width="2"></path></g><g transform="translate(1814 533)"><path d="M0 -14L9.9 -9.9L14 0L9.9 9.9L0 14L-9.9 9.9L-14 0L-9.9 -9.9Z" stroke="#1f2121" fill="none" stroke-width="2"></path></g><g transform="translate(933 750)"><path d="M0 -24L17 -17L24 0L17 17L0 24L-17 17L-24 0L-17 -17Z" stroke="#1f2121" fill="none" stroke-width="2"></path></g><g transform="translate(743 710)"><path d="M0 -21L14.8 -14.8L21 0L14.8 14.8L0 21L-14.8 14.8L-21 0L-14.8 -14.8Z" stroke="#1f2121" fill="none" stroke-width="2"></path></g><g transform="translate(761 462)"><path d="M0 -18L12.7 -12.7L18 0L12.7 12.7L0 18L-12.7 12.7L-18 0L-12.7 -12.7Z" stroke="#1f2121" fill="none" stroke-width="2"></path></g><g transform="translate(563 566)"><path d="M0 -15L10.6 -10.6L15 0L10.6 10.6L0 15L-10.6 10.6L-15 0L-10.6 -10.6Z" stroke="#1f2121" fill="none" stroke-width="2"></path></g><g transform="translate(967 864)"><path d="M0 -18L12.7 -12.7L18 0L12.7 12.7L0 18L-12.7 12.7L-18 0L-12.7 -12.7Z" stroke="#1f2121" fill="none" stroke-width="2"></path></g><g transform="translate(673 390)"><path d="M0 -10L7.1 -7.1L10 0L7.1 7.1L0 10L-7.1 7.1L-10 0L-7.1 -7.1Z" stroke="#1f2121" fill="none" stroke-width="2"></path></g><g transform="translate(617 508)"><path d="M0 -14L9.9 -9.9L14 0L9.9 9.9L0 14L-9.9 9.9L-14 0L-9.9 -9.9Z" stroke="#1f2121" fill="none" stroke-width="2"></path></g><g transform="translate(1355 873)"><path d="M0 -3L2.1 -2.1L3 0L2.1 2.1L0 3L-2.1 2.1L-3 0L-2.1 -2.1Z" stroke="#1f2121" fill="none" stroke-width="2"></path></g><g transform="translate(1036 562)"><path d="M0 -7L4.9 -4.9L7 0L4.9 4.9L0 7L-4.9 4.9L-7 0L-4.9 -4.9Z" stroke="#1f2121" fill="none" stroke-width="2"></path></g><g transform="translate(1454 772)"><path d="M0 -14L9.9 -9.9L14 0L9.9 9.9L0 14L-9.9 9.9L-14 0L-9.9 -9.9Z" stroke="#1f2121" fill="none" stroke-width="2"></path></g><g transform="translate(1377 775)"><path d="M0 -22L15.6 -15.6L22 0L15.6 15.6L0 22L-15.6 15.6L-22 0L-15.6 -15.6Z" stroke="#1f2121" fill="none" stroke-width="2"></path></g><g transform="translate(527 645)"><path d="M0 -8L5.7 -5.7L8 0L5.7 5.7L0 8L-5.7 5.7L-8 0L-5.7 -5.7Z" stroke="#1f2121" fill="none" stroke-width="2"></path></g><g transform="translate(740 1030)"><path d="M0 -14L9.9 -9.9L14 0L9.9 9.9L0 14L-9.9 9.9L-14 0L-9.9 -9.9Z" stroke="#1f2121" fill="none" stroke-width="2"></path></g><g transform="translate(1750 1040)"><path d="M0 -9L6.4 -6.4L9 0L6.4 6.4L0 9L-6.4 6.4L-9 0L-6.4 -6.4Z" stroke="#1f2121" fill="none" stroke-width="2"></path></g><g transform="translate(1583 394)"><path d="M0 -13L9.2 -9.2L13 0L9.2 9.2L0 13L-9.2 9.2L-13 0L-9.2 -9.2Z" stroke="#1f2121" fill="none" stroke-width="2"></path></g><g transform="translate(1243 761)"><path d="M0 -15L10.6 -10.6L15 0L10.6 10.6L0 15L-10.6 10.6L-15 0L-10.6 -10.6Z" stroke="#1f2121" fill="none" stroke-width="2"></path></g><g transform="translate(283 548)"><path d="M0 -10L7.1 -7.1L10 0L7.1 7.1L0 10L-7.1 7.1L-10 0L-7.1 -7.1Z" stroke="#1f2121" fill="none" stroke-width="2"></path></g><g transform="translate(627 153)"><path d="M0 -3L2.1 -2.1L3 0L2.1 2.1L0 3L-2.1 2.1L-3 0L-2.1 -2.1Z" stroke="#1f2121" fill="none" stroke-width="2"></path></g><g transform="translate(1851 981)"><path d="M0 -15L10.6 -10.6L15 0L10.6 10.6L0 15L-10.6 10.6L-15 0L-10.6 -10.6Z" stroke="#1f2121" fill="none" stroke-width="2"></path></g><g transform="translate(1414 1034)"><path d="M0 -24L17 -17L24 0L17 17L0 24L-17 17L-24 0L-17 -17Z" stroke="#1f2121" fill="none" stroke-width="2"></path></g><g transform="translate(1157 671)"><path d="M0 -3L2.1 -2.1L3 0L2.1 2.1L0 3L-2.1 2.1L-3 0L-2.1 -2.1Z" stroke="#1f2121" fill="none" stroke-width="2"></path></g><g transform="translate(1683 1028)"><path d="M0 -15L10.6 -10.6L15 0L10.6 10.6L0 15L-10.6 10.6L-15 0L-10.6 -10.6Z" stroke="#1f2121" fill="none" stroke-width="2"></path></g><g transform="translate(1678 647)"><path d="M0 -21L14.8 -14.8L21 0L14.8 14.8L0 21L-14.8 14.8L-21 0L-14.8 -14.8Z" stroke="#1f2121" fill="none" stroke-width="2"></path></g><g transform="translate(523 365)"><path d="M0 -18L12.7 -12.7L18 0L12.7 12.7L0 18L-12.7 12.7L-18 0L-12.7 -12.7Z" stroke="#1f2121" fill="none" stroke-width="2"></path></g><g transform="translate(1405 152)"><path d="M0 -15L10.6 -10.6L15 0L10.6 10.6L0 15L-10.6 10.6L-15 0L-10.6 -10.6Z" stroke="#1f2121" fill="none" stroke-width="2"></path></g><g transform="translate(1854 709)"><path d="M0 -21L14.8 -14.8L21 0L14.8 14.8L0 21L-14.8 14.8L-21 0L-14.8 -14.8Z" stroke="#1f2121" fill="none" stroke-width="2"></path></g><g transform="translate(1172 611)"><path d="M0 -17L12 -12L17 0L12 12L0 17L-12 12L-17 0L-12 -12Z" stroke="#1f2121" fill="none" stroke-width="2"></path></g><g transform="translate(80 372)"><path d="M0 -5L3.5 -3.5L5 0L3.5 3.5L0 5L-3.5 3.5L-5 0L-3.5 -3.5Z" stroke="#1f2121" fill="none" stroke-width="2"></path></g><g transform="translate(411 347)"><path d="M0 -12L8.5 -8.5L12 0L8.5 8.5L0 12L-8.5 8.5L-12 0L-8.5 -8.5Z" stroke="#1f2121" fill="none" stroke-width="2"></path></g><g transform="translate(534 416)"><path d="M0 -22L15.6 -15.6L22 0L15.6 15.6L0 22L-15.6 15.6L-22 0L-15.6 -15.6Z" stroke="#1f2121" fill="none" stroke-width="2"></path></g><g transform="translate(883 864)"><path d="M0 -22L15.6 -15.6L22 0L15.6 15.6L0 22L-15.6 15.6L-22 0L-15.6 -15.6Z" stroke="#1f2121" fill="none" stroke-width="2"></path></g><g transform="translate(101 730)"><path d="M0 -4L2.8 -2.8L4 0L2.8 2.8L0 4L-2.8 2.8L-4 0L-2.8 -2.8Z" stroke="#1f2121" fill="none" stroke-width="2"></path></g><g transform="translate(921 819)"><path d="M0 -24L17 -17L24 0L17 17L0 24L-17 17L-24 0L-17 -17Z" stroke="#1f2121" fill="none" stroke-width="2"></path></g><g transform="translate(482 234)"><path d="M0 -22L15.6 -15.6L22 0L15.6 15.6L0 22L-15.6 15.6L-22 0L-15.6 -15.6Z" stroke="#1f2121" fill="none" stroke-width="2"></path></g><g transform="translate(720 321)"><path d="M0 -3L2.1 -2.1L3 0L2.1 2.1L0 3L-2.1 2.1L-3 0L-2.1 -2.1Z" stroke="#1f2121" fill="none" stroke-width="2"></path></g><g transform="translate(135 506)"><path d="M0 -22L15.6 -15.6L22 0L15.6 15.6L0 22L-15.6 15.6L-22 0L-15.6 -15.6Z" stroke="#1f2121" fill="none" stroke-width="2"></path></g><g transform="translate(1336 481)"><path d="M0 -20L14.1 -14.1L20 0L14.1 14.1L0 20L-14.1 14.1L-20 0L-14.1 -14.1Z" stroke="#1f2121" fill="none" stroke-width="2"></path></g><g transform="translate(1606 693)"><path d="M0 -20L14.1 -14.1L20 0L14.1 14.1L0 20L-14.1 14.1L-20 0L-14.1 -14.1Z" stroke="#1f2121" fill="none" stroke-width="2"></path></g><g transform="translate(1846 173)"><path d="M0 -8L5.7 -5.7L8 0L5.7 5.7L0 8L-5.7 5.7L-8 0L-5.7 -5.7Z" stroke="#1f2121" fill="none" stroke-width="2"></path></g><g transform="translate(1234 197)"><path d="M0 -22L15.6 -15.6L22 0L15.6 15.6L0 22L-15.6 15.6L-22 0L-15.6 -15.6Z" stroke="#1f2121" fill="none" stroke-width="2"></path></g><g transform="translate(1397 609)"><path d="M0 -16L11.3 -11.3L16 0L11.3 11.3L0 16L-11.3 11.3L-16 0L-11.3 -11.3Z" stroke="#1f2121" fill="none" stroke-width="2"></path></g><g transform="translate(99 1014)"><path d="M0 -22L15.6 -15.6L22 0L15.6 15.6L0 22L-15.6 15.6L-22 0L-15.6 -15.6Z" stroke="#1f2121" fill="none" stroke-width="2"></path></g><g transform="translate(503 816)"><path d="M0 -23L16.3 -16.3L23 0L16.3 16.3L0 23L-16.3 16.3L-23 0L-16.3 -16.3Z" stroke="#1f2121" fill="none" stroke-width="2"></path></g><g transform="translate(1341 152)"><path d="M0 -15L10.6 -10.6L15 0L10.6 10.6L0 15L-10.6 10.6L-15 0L-10.6 -10.6Z" stroke="#1f2121" fill="none" stroke-width="2"></path></g><g transform="translate(588 187)"><path d="M0 -22L15.6 -15.6L22 0L15.6 15.6L0 22L-15.6 15.6L-22 0L-15.6 -15.6Z" stroke="#1f2121" fill="none" stroke-width="2"></path></g><g transform="translate(1387 37)"><path d="M0 -6L4.2 -4.2L6 0L4.2 4.2L0 6L-4.2 4.2L-6 0L-4.2 -4.2Z" stroke="#1f2121" fill="none" stroke-width="2"></path></g><g transform="translate(239 1007)"><path d="M0 -15L10.6 -10.6L15 0L10.6 10.6L0 15L-10.6 10.6L-15 0L-10.6 -10.6Z" stroke="#1f2121" fill="none" stroke-width="2"></path></g><g transform="translate(737 560)"><path d="M0 -3L2.1 -2.1L3 0L2.1 2.1L0 3L-2.1 2.1L-3 0L-2.1 -2.1Z" stroke="#1f2121" fill="none" stroke-width="2"></path></g><g transform="translate(989 774)"><path d="M0 -6L4.2 -4.2L6 0L4.2 4.2L0 6L-4.2 4.2L-6 0L-4.2 -4.2Z" stroke="#1f2121" fill="none" stroke-width="2"></path></g><g transform="translate(1494 416)"><path d="M0 -21L14.8 -14.8L21 0L14.8 14.8L0 21L-14.8 14.8L-21 0L-14.8 -14.8Z" stroke="#1f2121" fill="none" stroke-width="2"></path></g><g transform="translate(491 176)"><path d="M0 -21L14.8 -14.8L21 0L14.8 14.8L0 21L-14.8 14.8L-21 0L-14.8 -14.8Z" stroke="#1f2121" fill="none" stroke-width="2"></path></g><g transform="translate(124 334)"><path d="M0 -4L2.8 -2.8L4 0L2.8 2.8L0 4L-2.8 2.8L-4 0L-2.8 -2.8Z" stroke="#1f2121" fill="none" stroke-width="2"></path></g><g transform="translate(1589 302)"><path d="M0 -3L2.1 -2.1L3 0L2.1 2.1L0 3L-2.1 2.1L-3 0L-2.1 -2.1Z" stroke="#1f2121" fill="none" stroke-width="2"></path></g><g transform="translate(257 749)"><path d="M0 -17L12 -12L17 0L12 12L0 17L-12 12L-17 0L-12 -12Z" stroke="#1f2121" fill="none" stroke-width="2"></path></g><g transform="translate(680 894)"><path d="M0 -17L12 -12L17 0L12 12L0 17L-12 12L-17 0L-12 -12Z" stroke="#1f2121" fill="none" stroke-width="2"></path></g><g transform="translate(38 473)"><path d="M0 -12L8.5 -8.5L12 0L8.5 8.5L0 12L-8.5 8.5L-12 0L-8.5 -8.5Z" stroke="#1f2121" fill="none" stroke-width="2"></path></g><g transform="translate(778 70)"><path d="M0 -16L11.3 -11.3L16 0L11.3 11.3L0 16L-11.3 11.3L-16 0L-11.3 -11.3Z" stroke="#1f2121" fill="none" stroke-width="2"></path></g><g transform="translate(1320 412)"><path d="M0 -21L14.8 -14.8L21 0L14.8 14.8L0 21L-14.8 14.8L-21 0L-14.8 -14.8Z" stroke="#1f2121" fill="none" stroke-width="2"></path></g><g transform="translate(1824 316)"><path d="M0 -6L4.2 -4.2L6 0L4.2 4.2L0 6L-4.2 4.2L-6 0L-4.2 -4.2Z" stroke="#1f2121" fill="none" stroke-width="2"></path></g><g transform="translate(203 923)"><path d="M0 -20L14.1 -14.1L20 0L14.1 14.1L0 20L-14.1 14.1L-20 0L-14.1 -14.1Z" stroke="#1f2121" fill="none" stroke-width="2"></path></g><g transform="translate(376 908)"><path d="M0 -7L4.9 -4.9L7 0L4.9 4.9L0 7L-4.9 4.9L-7 0L-4.9 -4.9Z" stroke="#1f2121" fill="none" stroke-width="2"></path></g><g transform="translate(917 128)"><path d="M0 -5L3.5 -3.5L5 0L3.5 3.5L0 5L-3.5 3.5L-5 0L-3.5 -3.5Z" stroke="#1f2121" fill="none" stroke-width="2"></path></g><g transform="translate(1381 276)"><path d="M0 -19L13.4 -13.4L19 0L13.4 13.4L0 19L-13.4 13.4L-19 0L-13.4 -13.4Z" stroke="#1f2121" fill="none" stroke-width="2"></path></g><g transform="translate(1042 423)"><path d="M0 -17L12 -12L17 0L12 12L0 17L-12 12L-17 0L-12 -12Z" stroke="#1f2121" fill="none" stroke-width="2"></path></g><g transform="translate(1530 899)"><path d="M0 -7L4.9 -4.9L7 0L4.9 4.9L0 7L-4.9 4.9L-7 0L-4.9 -4.9Z" stroke="#1f2121" fill="none" stroke-width="2"></path></g><g transform="translate(771 908)"><path d="M0 -19L13.4 -13.4L19 0L13.4 13.4L0 19L-13.4 13.4L-19 0L-13.4 -13.4Z" stroke="#1f2121" fill="none" stroke-width="2"></path></g><g transform="translate(1556 524)"><path d="M0 -7L4.9 -4.9L7 0L4.9 4.9L0 7L-4.9 4.9L-7 0L-4.9 -4.9Z" stroke="#1f2121" fill="none" stroke-width="2"></path></g><g transform="translate(1643 67)"><path d="M0 -4L2.8 -2.8L4 0L2.8 2.8L0 4L-2.8 2.8L-4 0L-2.8 -2.8Z" stroke="#1f2121" fill="none" stroke-width="2"></path></g><g transform="translate(897 1022)"><path d="M0 -10L7.1 -7.1L10 0L7.1 7.1L0 10L-7.1 7.1L-10 0L-7.1 -7.1Z" stroke="#1f2121" fill="none" stroke-width="2"></path></g><g transform="translate(1884 936)"><path d="M0 -13L9.2 -9.2L13 0L9.2 9.2L0 13L-9.2 9.2L-13 0L-9.2 -9.2Z" stroke="#1f2121" fill="none" stroke-width="2"></path></g><g transform="translate(1496 245)"><path d="M0 -19L13.4 -13.4L19 0L13.4 13.4L0 19L-13.4 13.4L-19 0L-13.4 -13.4Z" stroke="#1f2121" fill="none" stroke-width="2"></path></g><g transform="translate(864 171)"><path d="M0 -23L16.3 -16.3L23 0L16.3 16.3L0 23L-16.3 16.3L-23 0L-16.3 -16.3Z" stroke="#1f2121" fill="none" stroke-width="2"></path></g><g transform="translate(383 803)"><path d="M0 -15L10.6 -10.6L15 0L10.6 10.6L0 15L-10.6 10.6L-15 0L-10.6 -10.6Z" stroke="#1f2121" fill="none" stroke-width="2"></path></g><g transform="translate(800 1032)"><path d="M0 -19L13.4 -13.4L19 0L13.4 13.4L0 19L-13.4 13.4L-19 0L-13.4 -13.4Z" stroke="#1f2121" fill="none" stroke-width="2"></path></g><g transform="translate(271 424)"><path d="M0 -9L6.4 -6.4L9 0L6.4 6.4L0 9L-6.4 6.4L-9 0L-6.4 -6.4Z" stroke="#1f2121" fill="none" stroke-width="2"></path></g><g transform="translate(683 764)"><path d="M0 -14L9.9 -9.9L14 0L9.9 9.9L0 14L-9.9 9.9L-14 0L-9.9 -9.9Z" stroke="#1f2121" fill="none" stroke-width="2"></path></g><g transform="translate(1455 452)"><path d="M0 -15L10.6 -10.6L15 0L10.6 10.6L0 15L-10.6 10.6L-15 0L-10.6 -10.6Z" stroke="#1f2121" fill="none" stroke-width="2"></path></g><g transform="translate(1743 899)"><path d="M0 -17L12 -12L17 0L12 12L0 17L-12 12L-17 0L-12 -12Z" stroke="#1f2121" fill="none" stroke-width="2"></path></g><g transform="translate(1003 259)"><path d="M0 -19L13.4 -13.4L19 0L13.4 13.4L0 19L-13.4 13.4L-19 0L-13.4 -13.4Z" stroke="#1f2121" fill="none" stroke-width="2"></path></g><g transform="translate(1267 60)"><path d="M0 -15L10.6 -10.6L15 0L10.6 10.6L0 15L-10.6 10.6L-15 0L-10.6 -10.6Z" stroke="#1f2121" fill="none" stroke-width="2"></path></g><g transform="translate(1103 575)"><path d="M0 -6L4.2 -4.2L6 0L4.2 4.2L0 6L-4.2 4.2L-6 0L-4.2 -4.2Z" stroke="#1f2121" fill="none" stroke-width="2"></path></g><g transform="translate(49 606)"><path d="M0 -22L15.6 -15.6L22 0L15.6 15.6L0 22L-15.6 15.6L-22 0L-15.6 -15.6Z" stroke="#1f2121" fill="none" stroke-width="2"></path></g><g transform="translate(106 263)"><path d="M0 -6L4.2 -4.2L6 0L4.2 4.2L0 6L-4.2 4.2L-6 0L-4.2 -4.2Z" stroke="#1f2121" fill="none" stroke-width="2"></path></g><g transform="translate(34 218)"><path d="M0 -3L2.1 -2.1L3 0L2.1 2.1L0 3L-2.1 2.1L-3 0L-2.1 -2.1Z" stroke="#1f2121" fill="none" stroke-width="2"></path></g><g transform="translate(964 593)"><path d="M0 -22L15.6 -15.6L22 0L15.6 15.6L0 22L-15.6 15.6L-22 0L-15.6 -15.6Z" stroke="#1f2121" fill="none" stroke-width="2"></path></g><g transform="translate(1257 263)"><path d="M0 -13L9.2 -9.2L13 0L9.2 9.2L0 13L-9.2 9.2L-13 0L-9.2 -9.2Z" stroke="#1f2121" fill="none" stroke-width="2"></path></g><g transform="translate(1322 925)"><path d="M0 -5L3.5 -3.5L5 0L3.5 3.5L0 5L-3.5 3.5L-5 0L-3.5 -3.5Z" stroke="#1f2121" fill="none" stroke-width="2"></path></g><g transform="translate(949 980)"><path d="M0 -17L12 -12L17 0L12 12L0 17L-12 12L-17 0L-12 -12Z" stroke="#1f2121" fill="none" stroke-width="2"></path></g><g transform="translate(1315 251)"><path d="M0 -12L8.5 -8.5L12 0L8.5 8.5L0 12L-8.5 8.5L-12 0L-8.5 -8.5Z" stroke="#1f2121" fill="none" stroke-width="2"></path></g><g transform="translate(1254 530)"><path d="M0 -7L4.9 -4.9L7 0L4.9 4.9L0 7L-4.9 4.9L-7 0L-4.9 -4.9Z" stroke="#1f2121" fill="none" stroke-width="2"></path></g><g transform="translate(1171 526)"><path d="M0 -17L12 -12L17 0L12 12L0 17L-12 12L-17 0L-12 -12Z" stroke="#1f2121" fill="none" stroke-width="2"></path></g><g transform="translate(544 698)"><path d="M0 -9L6.4 -6.4L9 0L6.4 6.4L0 9L-6.4 6.4L-9 0L-6.4 -6.4Z" stroke="#1f2121" fill="none" stroke-width="2"></path></g><g transform="translate(1557 347)"><path d="M0 -13L9.2 -9.2L13 0L9.2 9.2L0 13L-9.2 9.2L-13 0L-9.2 -9.2Z" stroke="#1f2121" fill="none" stroke-width="2"></path></g><g transform="translate(1571 238)"><path d="M0 -19L13.4 -13.4L19 0L13.4 13.4L0 19L-13.4 13.4L-19 0L-13.4 -13.4Z" stroke="#1f2121" fill="none" stroke-width="2"></path></g><g transform="translate(638 617)"><path d="M0 -17L12 -12L17 0L12 12L0 17L-12 12L-17 0L-12 -12Z" stroke="#1f2121" fill="none" stroke-width="2"></path></g><g transform="translate(1129 329)"><path d="M0 -7L4.9 -4.9L7 0L4.9 4.9L0 7L-4.9 4.9L-7 0L-4.9 -4.9Z" stroke="#1f2121" fill="none" stroke-width="2"></path></g><g transform="translate(372 970)"><path d="M0 -7L4.9 -4.9L7 0L4.9 4.9L0 7L-4.9 4.9L-7 0L-4.9 -4.9Z" stroke="#1f2121" fill="none" stroke-width="2"></path></g><g transform="translate(279 269)"><path d="M0 -4L2.8 -2.8L4 0L2.8 2.8L0 4L-2.8 2.8L-4 0L-2.8 -2.8Z" stroke="#1f2121" fill="none" stroke-width="2"></path></g><g transform="translate(351 257)"><path d="M0 -23L16.3 -16.3L23 0L16.3 16.3L0 23L-16.3 16.3L-23 0L-16.3 -16.3Z" stroke="#1f2121" fill="none" stroke-width="2"></path></g><g transform="translate(1214 371)"><path d="M0 -13L9.2 -9.2L13 0L9.2 9.2L0 13L-9.2 9.2L-13 0L-9.2 -9.2Z" stroke="#1f2121" fill="none" stroke-width="2"></path></g><g transform="translate(955 511)"><path d="M0 -14L9.9 -9.9L14 0L9.9 9.9L0 14L-9.9 9.9L-14 0L-9.9 -9.9Z" stroke="#1f2121" fill="none" stroke-width="2"></path></g><g transform="translate(1826 907)"><path d="M0 -24L17 -17L24 0L17 17L0 24L-17 17L-24 0L-17 -17Z" stroke="#1f2121" fill="none" stroke-width="2"></path></g><g transform="translate(609 727)"><path d="M0 -4L2.8 -2.8L4 0L2.8 2.8L0 4L-2.8 2.8L-4 0L-2.8 -2.8Z" stroke="#1f2121" fill="none" stroke-width="2"></path></g><g transform="translate(1734 641)"><path d="M0 -18L12.7 -12.7L18 0L12.7 12.7L0 18L-12.7 12.7L-18 0L-12.7 -12.7Z" stroke="#1f2121" fill="none" stroke-width="2"></path></g><g transform="translate(1880 1033)"><path d="M0 -3L2.1 -2.1L3 0L2.1 2.1L0 3L-2.1 2.1L-3 0L-2.1 -2.1Z" stroke="#1f2121" fill="none" stroke-width="2"></path></g><g transform="translate(1441 505)"><path d="M0 -21L14.8 -14.8L21 0L14.8 14.8L0 21L-14.8 14.8L-21 0L-14.8 -14.8Z" stroke="#1f2121" fill="none" stroke-width="2"></path></g><g transform="translate(608 445)"><path d="M0 -3L2.1 -2.1L3 0L2.1 2.1L0 3L-2.1 2.1L-3 0L-2.1 -2.1Z" stroke="#1f2121" fill="none" stroke-width="2"></path></g><g transform="translate(890 698)"><path d="M0 -24L17 -17L24 0L17 17L0 24L-17 17L-24 0L-17 -17Z" stroke="#1f2121" fill="none" stroke-width="2"></path></g><g transform="translate(1475 954)"><path d="M0 -23L16.3 -16.3L23 0L16.3 16.3L0 23L-16.3 16.3L-23 0L-16.3 -16.3Z" stroke="#1f2121" fill="none" stroke-width="2"></path></g><g transform="translate(344 397)"><path d="M0 -13L9.2 -9.2L13 0L9.2 9.2L0 13L-9.2 9.2L-13 0L-9.2 -9.2Z" stroke="#1f2121" fill="none" stroke-width="2"></path></g><g transform="translate(1903 404)"><path d="M0 -18L12.7 -12.7L18 0L12.7 12.7L0 18L-12.7 12.7L-18 0L-12.7 -12.7Z" stroke="#1f2121" fill="none" stroke-width="2"></path></g><g transform="translate(699 598)"><path d="M0 -23L16.3 -16.3L23 0L16.3 16.3L0 23L-16.3 16.3L-23 0L-16.3 -16.3Z" stroke="#1f2121" fill="none" stroke-width="2"></path></g><g transform="translate(1866 578)"><path d="M0 -24L17 -17L24 0L17 17L0 24L-17 17L-24 0L-17 -17Z" stroke="#1f2121" fill="none" stroke-width="2"></path></g><g transform="translate(1880 502)"><path d="M0 -19L13.4 -13.4L19 0L13.4 13.4L0 19L-13.4 13.4L-19 0L-13.4 -13.4Z" stroke="#1f2121" fill="none" stroke-width="2"></path></g><g transform="translate(1083 377)"><path d="M0 -9L6.4 -6.4L9 0L6.4 6.4L0 9L-6.4 6.4L-9 0L-6.4 -6.4Z" stroke="#1f2121" fill="none" stroke-width="2"></path></g><g transform="translate(1256 588)"><path d="M0 -11L7.8 -7.8L11 0L7.8 7.8L0 11L-7.8 7.8L-11 0L-7.8 -7.8Z" stroke="#1f2121" fill="none" stroke-width="2"></path></g><g transform="translate(1641 940)"><path d="M0 -20L14.1 -14.1L20 0L14.1 14.1L0 20L-14.1 14.1L-20 0L-14.1 -14.1Z" stroke="#1f2121" fill="none" stroke-width="2"></path></g><g transform="translate(1595 46)"><path d="M0 -20L14.1 -14.1L20 0L14.1 14.1L0 20L-14.1 14.1L-20 0L-14.1 -14.1Z" stroke="#1f2121" fill="none" stroke-width="2"></path></g><g transform="translate(1721 816)"><path d="M0 -11L7.8 -7.8L11 0L7.8 7.8L0 11L-7.8 7.8L-11 0L-7.8 -7.8Z" stroke="#1f2121" fill="none" stroke-width="2"></path></g><g transform="translate(805 147)"><path d="M0 -14L9.9 -9.9L14 0L9.9 9.9L0 14L-9.9 9.9L-14 0L-9.9 -9.9Z" stroke="#1f2121" fill="none" stroke-width="2"></path></g><g transform="translate(176 197)"><path d="M0 -5L3.5 -3.5L5 0L3.5 3.5L0 5L-3.5 3.5L-5 0L-3.5 -3.5Z" stroke="#1f2121" fill="none" stroke-width="2"></path></g><g transform="translate(856 773)"><path d="M0 -22L15.6 -15.6L22 0L15.6 15.6L0 22L-15.6 15.6L-22 0L-15.6 -15.6Z" stroke="#1f2121" fill="none" stroke-width="2"></path></g><g transform="translate(523 758)"><path d="M0 -5L3.5 -3.5L5 0L3.5 3.5L0 5L-3.5 3.5L-5 0L-3.5 -3.5Z" stroke="#1f2121" fill="none" stroke-width="2"></path></g><g transform="translate(103 422)"><path d="M0 -19L13.4 -13.4L19 0L13.4 13.4L0 19L-13.4 13.4L-19 0L-13.4 -13.4Z" stroke="#1f2121" fill="none" stroke-width="2"></path></g><g transform="translate(1331 1038)"><path d="M0 -18L12.7 -12.7L18 0L12.7 12.7L0 18L-12.7 12.7L-18 0L-12.7 -12.7Z" stroke="#1f2121" fill="none" stroke-width="2"></path></g><g transform="translate(464 332)"><path d="M0 -5L3.5 -3.5L5 0L3.5 3.5L0 5L-3.5 3.5L-5 0L-3.5 -3.5Z" stroke="#1f2121" fill="none" stroke-width="2"></path></g><g transform="translate(1691 122)"><path d="M0 -4L2.8 -2.8L4 0L2.8 2.8L0 4L-2.8 2.8L-4 0L-2.8 -2.8Z" stroke="#1f2121" fill="none" stroke-width="2"></path></g><g transform="translate(462 565)"><path d="M0 -20L14.1 -14.1L20 0L14.1 14.1L0 20L-14.1 14.1L-20 0L-14.1 -14.1Z" stroke="#1f2121" fill="none" stroke-width="2"></path></g><g transform="translate(668 224)"><path d="M0 -14L9.9 -9.9L14 0L9.9 9.9L0 14L-9.9 9.9L-14 0L-9.9 -9.9Z" stroke="#1f2121" fill="none" stroke-width="2"></path></g><g transform="translate(965 1030)"><path d="M0 -3L2.1 -2.1L3 0L2.1 2.1L0 3L-2.1 2.1L-3 0L-2.1 -2.1Z" stroke="#1f2121" fill="none" stroke-width="2"></path></g><g transform="translate(340 618)"><path d="M0 -17L12 -12L17 0L12 12L0 17L-12 12L-17 0L-12 -12Z" stroke="#1f2121" fill="none" stroke-width="2"></path></g><g transform="translate(417 28)"><path d="M0 -24L17 -17L24 0L17 17L0 24L-17 17L-24 0L-17 -17Z" stroke="#1f2121" fill="none" stroke-width="2"></path></g><g transform="translate(300 864)"><path d="M0 -22L15.6 -15.6L22 0L15.6 15.6L0 22L-15.6 15.6L-22 0L-15.6 -15.6Z" stroke="#1f2121" fill="none" stroke-width="2"></path></g><g transform="translate(707 469)"><path d="M0 -7L4.9 -4.9L7 0L4.9 4.9L0 7L-4.9 4.9L-7 0L-4.9 -4.9Z" stroke="#1f2121" fill="none" stroke-width="2"></path></g><g transform="translate(452 928)"><path d="M0 -5L3.5 -3.5L5 0L3.5 3.5L0 5L-3.5 3.5L-5 0L-3.5 -3.5Z" stroke="#1f2121" fill="none" stroke-width="2"></path></g><g transform="translate(1451 112)"><path d="M0 -23L16.3 -16.3L23 0L16.3 16.3L0 23L-16.3 16.3L-23 0L-16.3 -16.3Z" stroke="#1f2121" fill="none" stroke-width="2"></path></g><g transform="translate(83 97)"><path d="M0 -10L7.1 -7.1L10 0L7.1 7.1L0 10L-7.1 7.1L-10 0L-7.1 -7.1Z" stroke="#1f2121" fill="none" stroke-width="2"></path></g><g transform="translate(111 646)"><path d="M0 -19L13.4 -13.4L19 0L13.4 13.4L0 19L-13.4 13.4L-19 0L-13.4 -13.4Z" stroke="#1f2121" fill="none" stroke-width="2"></path></g><g transform="translate(93 202)"><path d="M0 -15L10.6 -10.6L15 0L10.6 10.6L0 15L-10.6 10.6L-15 0L-10.6 -10.6Z" stroke="#1f2121" fill="none" stroke-width="2"></path></g><g transform="translate(1391 432)"><path d="M0 -14L9.9 -9.9L14 0L9.9 9.9L0 14L-9.9 9.9L-14 0L-9.9 -9.9Z" stroke="#1f2121" fill="none" stroke-width="2"></path></g><g transform="translate(753 391)"><path d="M0 -19L13.4 -13.4L19 0L13.4 13.4L0 19L-13.4 13.4L-19 0L-13.4 -13.4Z" stroke="#1f2121" fill="none" stroke-width="2"></path></g><g transform="translate(597 71)"><path d="M0 -6L4.2 -4.2L6 0L4.2 4.2L0 6L-4.2 4.2L-6 0L-4.2 -4.2Z" stroke="#1f2121" fill="none" stroke-width="2"></path></g><g transform="translate(159 396)"><path d="M0 -19L13.4 -13.4L19 0L13.4 13.4L0 19L-13.4 13.4L-19 0L-13.4 -13.4Z" stroke="#1f2121" fill="none" stroke-width="2"></path></g><g transform="translate(1783 692)"><path d="M0 -18L12.7 -12.7L18 0L12.7 12.7L0 18L-12.7 12.7L-18 0L-12.7 -12.7Z" stroke="#1f2121" fill="none" stroke-width="2"></path></g><g transform="translate(960 400)"><path d="M0 -17L12 -12L17 0L12 12L0 17L-12 12L-17 0L-12 -12Z" stroke="#1f2121" fill="none" stroke-width="2"></path></g><g transform="translate(275 941)"><path d="M0 -12L8.5 -8.5L12 0L8.5 8.5L0 12L-8.5 8.5L-12 0L-8.5 -8.5Z" stroke="#1f2121" fill="none" stroke-width="2"></path></g><g transform="translate(966 91)"><path d="M0 -20L14.1 -14.1L20 0L14.1 14.1L0 20L-14.1 14.1L-20 0L-14.1 -14.1Z" stroke="#1f2121" fill="none" stroke-width="2"></path></g><g transform="translate(1268 455)"><path d="M0 -17L12 -12L17 0L12 12L0 17L-12 12L-17 0L-12 -12Z" stroke="#1f2121" fill="none" stroke-width="2"></path></g><g transform="translate(1160 189)"><path d="M0 -12L8.5 -8.5L12 0L8.5 8.5L0 12L-8.5 8.5L-12 0L-8.5 -8.5Z" stroke="#1f2121" fill="none" stroke-width="2"></path></g><g transform="translate(1030 178)"><path d="M0 -13L9.2 -9.2L13 0L9.2 9.2L0 13L-9.2 9.2L-13 0L-9.2 -9.2Z" stroke="#1f2121" fill="none" stroke-width="2"></path></g><g transform="translate(145 597)"><path d="M0 -13L9.2 -9.2L13 0L9.2 9.2L0 13L-9.2 9.2L-13 0L-9.2 -9.2Z" stroke="#1f2121" fill="none" stroke-width="2"></path></g><g transform="translate(60 317)"><path d="M0 -9L6.4 -6.4L9 0L6.4 6.4L0 9L-6.4 6.4L-9 0L-6.4 -6.4Z" stroke="#1f2121" fill="none" stroke-width="2"></path></g><g transform="translate(947 256)"><path d="M0 -13L9.2 -9.2L13 0L9.2 9.2L0 13L-9.2 9.2L-13 0L-9.2 -9.2Z" stroke="#1f2121" fill="none" stroke-width="2"></path></g><g transform="translate(29 137)"><path d="M0 -20L14.1 -14.1L20 0L14.1 14.1L0 20L-14.1 14.1L-20 0L-14.1 -14.1Z" stroke="#1f2121" fill="none" stroke-width="2"></path></g><g transform="translate(296 65)"><path d="M0 -11L7.8 -7.8L11 0L7.8 7.8L0 11L-7.8 7.8L-11 0L-7.8 -7.8Z" stroke="#1f2121" fill="none" stroke-width="2"></path></g><g transform="translate(1882 773)"><path d="M0 -7L4.9 -4.9L7 0L4.9 4.9L0 7L-4.9 4.9L-7 0L-4.9 -4.9Z" stroke="#1f2121" fill="none" stroke-width="2"></path></g><g transform="translate(1585 1010)"><path d="M0 -10L7.1 -7.1L10 0L7.1 7.1L0 10L-7.1 7.1L-10 0L-7.1 -7.1Z" stroke="#1f2121" fill="none" stroke-width="2"></path></g><g transform="translate(1657 211)"><path d="M0 -9L6.4 -6.4L9 0L6.4 6.4L0 9L-6.4 6.4L-9 0L-6.4 -6.4Z" stroke="#1f2121" fill="none" stroke-width="2"></path></g><g transform="translate(271 335)"><path d="M0 -3L2.1 -2.1L3 0L2.1 2.1L0 3L-2.1 2.1L-3 0L-2.1 -2.1Z" stroke="#1f2121" fill="none" stroke-width="2"></path></g><g transform="translate(179 734)"><path d="M0 -5L3.5 -3.5L5 0L3.5 3.5L0 5L-3.5 3.5L-5 0L-3.5 -3.5Z" stroke="#1f2121" fill="none" stroke-width="2"></path></g><g transform="translate(1317 823)"><path d="M0 -4L2.8 -2.8L4 0L2.8 2.8L0 4L-2.8 2.8L-4 0L-2.8 -2.8Z" stroke="#1f2121" fill="none" stroke-width="2"></path></g><g transform="translate(1553 736)"><path d="M0 -21L14.8 -14.8L21 0L14.8 14.8L0 21L-14.8 14.8L-21 0L-14.8 -14.8Z" stroke="#1f2121" fill="none" stroke-width="2"></path></g><g transform="translate(1221 652)"><path d="M0 -14L9.9 -9.9L14 0L9.9 9.9L0 14L-9.9 9.9L-14 0L-9.9 -9.9Z" stroke="#1f2121" fill="none" stroke-width="2"></path></g><g transform="translate(148 848)"><path d="M0 -22L15.6 -15.6L22 0L15.6 15.6L0 22L-15.6 15.6L-22 0L-15.6 -15.6Z" stroke="#1f2121" fill="none" stroke-width="2"></path></g><g transform="translate(1746 244)"><path d="M0 -20L14.1 -14.1L20 0L14.1 14.1L0 20L-14.1 14.1L-20 0L-14.1 -14.1Z" stroke="#1f2121" fill="none" stroke-width="2"></path></g><g transform="translate(832 837)"><path d="M0 -19L13.4 -13.4L19 0L13.4 13.4L0 19L-13.4 13.4L-19 0L-13.4 -13.4Z" stroke="#1f2121" fill="none" stroke-width="2"></path></g><g transform="translate(593 318)"><path d="M0 -4L2.8 -2.8L4 0L2.8 2.8L0 4L-2.8 2.8L-4 0L-2.8 -2.8Z" stroke="#1f2121" fill="none" stroke-width="2"></path></g><g transform="translate(1169 61)"><path d="M0 -15L10.6 -10.6L15 0L10.6 10.6L0 15L-10.6 10.6L-15 0L-10.6 -10.6Z" stroke="#1f2121" fill="none" stroke-width="2"></path></g><g transform="translate(1256 333)"><path d="M0 -6L4.2 -4.2L6 0L4.2 4.2L0 6L-4.2 4.2L-6 0L-4.2 -4.2Z" stroke="#1f2121" fill="none" stroke-width="2"></path></g><g transform="translate(1861 653)"><path d="M0 -13L9.2 -9.2L13 0L9.2 9.2L0 13L-9.2 9.2L-13 0L-9.2 -9.2Z" stroke="#1f2121" fill="none" stroke-width="2"></path></g><g transform="translate(243 93)"><path d="M0 -23L16.3 -16.3L23 0L16.3 16.3L0 23L-16.3 16.3L-23 0L-16.3 -16.3Z" stroke="#1f2121" fill="none" stroke-width="2"></path></g><g transform="translate(1175 733)"><path d="M0 -3L2.1 -2.1L3 0L2.1 2.1L0 3L-2.1 2.1L-3 0L-2.1 -2.1Z" stroke="#1f2121" fill="none" stroke-width="2"></path></g><g transform="translate(625 854)"><path d="M0 -4L2.8 -2.8L4 0L2.8 2.8L0 4L-2.8 2.8L-4 0L-2.8 -2.8Z" stroke="#1f2121" fill="none" stroke-width="2"></path></g><g transform="translate(1545 137)"><path d="M0 -16L11.3 -11.3L16 0L11.3 11.3L0 16L-11.3 11.3L-16 0L-11.3 -11.3Z" stroke="#1f2121" fill="none" stroke-width="2"></path></g><g transform="translate(1188 802)"><path d="M0 -21L14.8 -14.8L21 0L14.8 14.8L0 21L-14.8 14.8L-21 0L-14.8 -14.8Z" stroke="#1f2121" fill="none" stroke-width="2"></path></g><g transform="translate(335 558)"><path d="M0 -11L7.8 -7.8L11 0L7.8 7.8L0 11L-7.8 7.8L-11 0L-7.8 -7.8Z" stroke="#1f2121" fill="none" stroke-width="2"></path></g><g transform="translate(1628 137)"><path d="M0 -5L3.5 -3.5L5 0L3.5 3.5L0 5L-3.5 3.5L-5 0L-3.5 -3.5Z" stroke="#1f2121" fill="none" stroke-width="2"></path></g><g transform="translate(1400 92)"><path d="M0 -8L5.7 -5.7L8 0L5.7 5.7L0 8L-5.7 5.7L-8 0L-5.7 -5.7Z" stroke="#1f2121" fill="none" stroke-width="2"></path></g><g transform="translate(721 223)"><path d="M0 -21L14.8 -14.8L21 0L14.8 14.8L0 21L-14.8 14.8L-21 0L-14.8 -14.8Z" stroke="#1f2121" fill="none" stroke-width="2"></path></g><g transform="translate(812 723)"><path d="M0 -13L9.2 -9.2L13 0L9.2 9.2L0 13L-9.2 9.2L-13 0L-9.2 -9.2Z" stroke="#1f2121" fill="none" stroke-width="2"></path></g><g transform="translate(835 43)"><path d="M0 -9L6.4 -6.4L9 0L6.4 6.4L0 9L-6.4 6.4L-9 0L-6.4 -6.4Z" stroke="#1f2121" fill="none" stroke-width="2"></path></g><g transform="translate(1459 293)"><path d="M0 -16L11.3 -11.3L16 0L11.3 11.3L0 16L-11.3 11.3L-16 0L-11.3 -11.3Z" stroke="#1f2121" fill="none" stroke-width="2"></path></g><g transform="translate(192 250)"><path d="M0 -24L17 -17L24 0L17 17L0 24L-17 17L-24 0L-17 -17Z" stroke="#1f2121" fill="none" stroke-width="2"></path></g><g transform="translate(212 480)"><path d="M0 -13L9.2 -9.2L13 0L9.2 9.2L0 13L-9.2 9.2L-13 0L-9.2 -9.2Z" stroke="#1f2121" fill="none" stroke-width="2"></path></g><g transform="translate(1770 394)"><path d="M0 -16L11.3 -11.3L16 0L11.3 11.3L0 16L-11.3 11.3L-16 0L-11.3 -11.3Z" stroke="#1f2121" fill="none" stroke-width="2"></path></g><g transform="translate(1584 900)"><path d="M0 -14L9.9 -9.9L14 0L9.9 9.9L0 14L-9.9 9.9L-14 0L-9.9 -9.9Z" stroke="#1f2121" fill="none" stroke-width="2"></path></g><g transform="translate(1755 82)"><path d="M0 -12L8.5 -8.5L12 0L8.5 8.5L0 12L-8.5 8.5L-12 0L-8.5 -8.5Z" stroke="#1f2121" fill="none" stroke-width="2"></path></g><g transform="translate(644 337)"><path d="M0 -24L17 -17L24 0L17 17L0 24L-17 17L-24 0L-17 -17Z" stroke="#1f2121" fill="none" stroke-width="2"></path></g><g transform="translate(1514 71)"><path d="M0 -14L9.9 -9.9L14 0L9.9 9.9L0 14L-9.9 9.9L-14 0L-9.9 -9.9Z" stroke="#1f2121" fill="none" stroke-width="2"></path></g><g transform="translate(1674 887)"><path d="M0 -3L2.1 -2.1L3 0L2.1 2.1L0 3L-2.1 2.1L-3 0L-2.1 -2.1Z" stroke="#1f2121" fill="none" stroke-width="2"></path></g><g transform="translate(1807 105)"><path d="M0 -10L7.1 -7.1L10 0L7.1 7.1L0 10L-7.1 7.1L-10 0L-7.1 -7.1Z" stroke="#1f2121" fill="none" stroke-width="2"></path></g><g transform="translate(533 903)"><path d="M0 -14L9.9 -9.9L14 0L9.9 9.9L0 14L-9.9 9.9L-14 0L-9.9 -9.9Z" stroke="#1f2121" fill="none" stroke-width="2"></path></g><g transform="translate(1471 644)"><path d="M0 -14L9.9 -9.9L14 0L9.9 9.9L0 14L-9.9 9.9L-14 0L-9.9 -9.9Z" stroke="#1f2121" fill="none" stroke-width="2"></path></g><g transform="translate(476 512)"><path d="M0 -15L10.6 -10.6L15 0L10.6 10.6L0 15L-10.6 10.6L-15 0L-10.6 -10.6Z" stroke="#1f2121" fill="none" stroke-width="2"></path></g><g transform="translate(900 962)"><path d="M0 -15L10.6 -10.6L15 0L10.6 10.6L0 15L-10.6 10.6L-15 0L-10.6 -10.6Z" stroke="#1f2121" fill="none" stroke-width="2"></path></g><g transform="translate(1837 844)"><path d="M0 -13L9.2 -9.2L13 0L9.2 9.2L0 13L-9.2 9.2L-13 0L-9.2 -9.2Z" stroke="#1f2121" fill="none" stroke-width="2"></path></g><g transform="translate(1275 126)"><path d="M0 -3L2.1 -2.1L3 0L2.1 2.1L0 3L-2.1 2.1L-3 0L-2.1 -2.1Z" stroke="#1f2121" fill="none" stroke-width="2"></path></g><g transform="translate(1880 875)"><path d="M0 -17L12 -12L17 0L12 12L0 17L-12 12L-17 0L-12 -12Z" stroke="#1f2121" fill="none" stroke-width="2"></path></g><g transform="translate(128 791)"><path d="M0 -6L4.2 -4.2L6 0L4.2 4.2L0 6L-4.2 4.2L-6 0L-4.2 -4.2Z" stroke="#1f2121" fill="none" stroke-width="2"></path></g><g transform="translate(1654 374)"><path d="M0 -9L6.4 -6.4L9 0L6.4 6.4L0 9L-6.4 6.4L-9 0L-6.4 -6.4Z" stroke="#1f2121" fill="none" stroke-width="2"></path></g><g transform="translate(1767 749)"><path d="M0 -18L12.7 -12.7L18 0L12.7 12.7L0 18L-12.7 12.7L-18 0L-12.7 -12.7Z" stroke="#1f2121" fill="none" stroke-width="2"></path></g><g transform="translate(683 160)"><path d="M0 -22L15.6 -15.6L22 0L15.6 15.6L0 22L-15.6 15.6L-22 0L-15.6 -15.6Z" stroke="#1f2121" fill="none" stroke-width="2"></path></g><g transform="translate(409 228)"><path d="M0 -24L17 -17L24 0L17 17L0 24L-17 17L-24 0L-17 -17Z" stroke="#1f2121" fill="none" stroke-width="2"></path></g><g transform="translate(174 1051)"><path d="M0 -23L16.3 -16.3L23 0L16.3 16.3L0 23L-16.3 16.3L-23 0L-16.3 -16.3Z" stroke="#1f2121" fill="none" stroke-width="2"></path></g><g transform="translate(1600 636)"><path d="M0 -3L2.1 -2.1L3 0L2.1 2.1L0 3L-2.1 2.1L-3 0L-2.1 -2.1Z" stroke="#1f2121" fill="none" stroke-width="2"></path></g><g transform="translate(1491 1020)"><path d="M0 -24L17 -17L24 0L17 17L0 24L-17 17L-24 0L-17 -17Z" stroke="#1f2121" fill="none" stroke-width="2"></path></g><g transform="translate(1026 620)"><path d="M0 -15L10.6 -10.6L15 0L10.6 10.6L0 15L-10.6 10.6L-15 0L-10.6 -10.6Z" stroke="#1f2121" fill="none" stroke-width="2"></path></g><g transform="translate(1707 358)"><path d="M0 -16L11.3 -11.3L16 0L11.3 11.3L0 16L-11.3 11.3L-16 0L-11.3 -11.3Z" stroke="#1f2121" fill="none" stroke-width="2"></path></g><g transform="translate(786 963)"><path d="M0 -19L13.4 -13.4L19 0L13.4 13.4L0 19L-13.4 13.4L-19 0L-13.4 -13.4Z" stroke="#1f2121" fill="none" stroke-width="2"></path></g><g transform="translate(1851 76)"><path d="M0 -3L2.1 -2.1L3 0L2.1 2.1L0 3L-2.1 2.1L-3 0L-2.1 -2.1Z" stroke="#1f2121" fill="none" stroke-width="2"></path></g><g transform="translate(532 311)"><path d="M0 -9L6.4 -6.4L9 0L6.4 6.4L0 9L-6.4 6.4L-9 0L-6.4 -6.4Z" stroke="#1f2121" fill="none" stroke-width="2"></path></g><g transform="translate(538 1052)"><path d="M0 -3L2.1 -2.1L3 0L2.1 2.1L0 3L-2.1 2.1L-3 0L-2.1 -2.1Z" stroke="#1f2121" fill="none" stroke-width="2"></path></g><g transform="translate(775 236)"><path d="M0 -4L2.8 -2.8L4 0L2.8 2.8L0 4L-2.8 2.8L-4 0L-2.8 -2.8Z" stroke="#1f2121" fill="none" stroke-width="2"></path></g><g transform="translate(1790 164)"><path d="M0 -15L10.6 -10.6L15 0L10.6 10.6L0 15L-10.6 10.6L-15 0L-10.6 -10.6Z" stroke="#1f2121" fill="none" stroke-width="2"></path></g><g transform="translate(616 794)"><path d="M0 -18L12.7 -12.7L18 0L12.7 12.7L0 18L-12.7 12.7L-18 0L-12.7 -12.7Z" stroke="#1f2121" fill="none" stroke-width="2"></path></g><g transform="translate(136 124)"><path d="M0 -22L15.6 -15.6L22 0L15.6 15.6L0 22L-15.6 15.6L-22 0L-15.6 -15.6Z" stroke="#1f2121" fill="none" stroke-width="2"></path></g><g transform="translate(419 521)"><path d="M0 -19L13.4 -13.4L19 0L13.4 13.4L0 19L-13.4 13.4L-19 0L-13.4 -13.4Z" stroke="#1f2121" fill="none" stroke-width="2"></path></g><g transform="translate(908 428)"><path d="M0 -17L12 -12L17 0L12 12L0 17L-12 12L-17 0L-12 -12Z" stroke="#1f2121" fill="none" stroke-width="2"></path></g><g transform="translate(908 489)"><path d="M0 -4L2.8 -2.8L4 0L2.8 2.8L0 4L-2.8 2.8L-4 0L-2.8 -2.8Z" stroke="#1f2121" fill="none" stroke-width="2"></path></g><g transform="translate(337 320)"><path d="M0 -5L3.5 -3.5L5 0L3.5 3.5L0 5L-3.5 3.5L-5 0L-3.5 -3.5Z" stroke="#1f2121" fill="none" stroke-width="2"></path></g><g transform="translate(1407 664)"><path d="M0 -15L10.6 -10.6L15 0L10.6 10.6L0 15L-10.6 10.6L-15 0L-10.6 -10.6Z" stroke="#1f2121" fill="none" stroke-width="2"></path></g><g transform="translate(256 31)"><path d="M0 -8L5.7 -5.7L8 0L5.7 5.7L0 8L-5.7 5.7L-8 0L-5.7 -5.7Z" stroke="#1f2121" fill="none" stroke-width="2"></path></g></g></svg>