<svg id="Layer_1" data-name="Layer 1" xmlns="http://www.w3.org/2000/svg" viewBox="0 0 136 164"><defs><style>.cls-1{fill:#c69c6d;}.cls-2{fill:#34d69f;}.cls-2,.cls-3{stroke:#bdccd4;stroke-miterlimit:10;}.cls-3{fill:#edff9f;}.cls-4{fill:#ff5f64;}</style></defs><title>LH logo</title><g id="Layer_2" data-name="Layer 2"><polygon class="cls-1" points="0 86 0 120 68 164 136 120 136 86 124 86 124 116 68 151 13 116 13 86 0 86"/><polygon class="cls-2" points="18 50 30 42 30 110 53 125 53 102 65 102 65 145 18 114 18 50"/><polygon class="cls-3" points="71 19 89 30 89 42 83 38 83 77 106 77 106 54 100 50 100 37 118 49 118 114 101 125 101 113 106 110 106 86 83 86 83 125 89 121 89 133 71 145 71 19"/></g><polygon class="cls-4" points="0 77 0 43 68 0 136 43 136 77 124 77 124 48 68 12 12 47 12 77 0 77"/></svg>